<svg viewBox="0 0 600 185" xmlns="http://www.w3.org/2000/svg"><g fill="none" stroke="#4051b5"><rect x="15" y="65" width="95" height="55"/><rect x="210" y="65" width="165" height="55"/><rect x="470" y="15" width="110" height="50"/><rect x="470" y="130" width="110" height="45"/><path d="M110 80h100l-7 -5m7 5l-7 5M210 108H110l7 -5m-7 5l7 5M375 80L470 43l-9 -2m9 2l-5 7M470 150L375 108l5 7m-5 -7l9 1"/></g><g fill="#4051b5" font-size="15" text-anchor="middle"><text x="63" y="98">CPU</text><text x="292" y="98">DMA控制器</text><text x="525" y="47">主存</text><text x="525" y="158">设备</text><text x="160" y="65">配置</text><text x="157" y="137">完成通知</text><text x="420" y="30">数据传输</text></g></svg>